<?xml version="1.0" encoding="UTF-8"?>
<svg version="1.1" xmlns="http://www.w3.org/2000/svg" width="1856" height="490">
<path d="M0 0 C7.66003784 5.57750688 14.93980456 11.51441198 21.7890625 18.0703125 C22.40910156 18.65039062 23.02914063 19.23046875 23.66796875 19.828125 C27.76933415 23.77351006 31.32346336 28.06177758 34.81640625 32.55078125 C36.04626475 34.12159063 37.30507349 35.67066077 38.60546875 37.18359375 C52.77697695 54.01820416 55.93202734 75.82460486 55.95019531 97.11108398 C55.95483163 98.52308784 55.95985737 99.93509047 55.96524048 101.34709167 C55.97829277 105.16581898 55.98479597 108.98452877 55.98925114 112.80327487 C55.99219499 115.19750177 55.99630231 117.59172402 56.00075531 119.98594856 C56.01441468 127.50110488 56.02408756 135.0162504 56.0279572 142.53141826 C56.03242679 151.16082447 56.04992998 159.79007141 56.0789578 168.41942924 C56.10069828 175.11874245 56.11066811 181.81801127 56.11199832 188.51735932 C56.11303804 192.50457506 56.11876493 196.4916408 56.13681793 200.47881889 C56.26063529 229.50354504 55.33362795 258.33413423 33.6953125 280.3515625 C29.40244661 284.3674693 24.95175341 287.29090985 19.7890625 290.0703125 C19.2105957 290.3895166 18.63212891 290.7087207 18.03613281 291.03759766 C-11.19507307 307.0466211 -47.56326545 313.09417382 -80.03808594 303.75927734 C-91.0007125 300.2832625 -100.25325357 295.34749291 -109.2109375 288.0703125 C-110.0359375 287.4515625 -110.8609375 286.8328125 -111.7109375 286.1953125 C-124.86760216 275.01214754 -132.72104805 257.36774777 -137.2109375 241.0703125 C-137.2109375 240.4103125 -137.2109375 239.7503125 -137.2109375 239.0703125 C-129.67453204 238.83760805 -122.13850297 238.660433 -114.59931278 238.55219078 C-111.09737984 238.5002083 -107.5979209 238.4298441 -104.09741211 238.31591797 C-100.06341251 238.18546565 -96.03196899 238.13778462 -91.99609375 238.09375 C-90.75199234 238.04213715 -89.50789093 237.99052429 -88.22608948 237.93734741 C-79.61570595 237.93183851 -79.61570595 237.93183851 -75.53097534 241.24224854 C-73.16186523 243.91650391 -73.16186523 243.91650391 -71.18333435 246.58145142 C-65.2751485 254.03667213 -54.97299593 257.45463996 -45.8359375 258.8828125 C-34.71560535 259.79177878 -24.61877929 255.83811544 -16.0234375 248.9453125 C-5.19375984 238.81573522 -0.59454873 224.50953734 0.7890625 210.0703125 C0.93066288 205.39749994 0.91348866 200.74320618 0.7890625 196.0703125 C0.35078125 196.68777344 -0.0875 197.30523437 -0.5390625 197.94140625 C-11.73455054 212.89147869 -26.08576636 219.90835749 -44.18359375 222.56640625 C-64.52215469 225.24017487 -85.85478712 219.43890505 -102.2109375 207.0703125 C-122.12593307 190.91733062 -132.6484361 171.55540294 -139.2109375 147.0703125 C-139.32050781 147.71355469 -139.43007812 148.35679687 -139.54296875 149.01953125 C-142.9168364 168.24783386 -147.5591916 183.63779083 -161.2109375 198.0703125 C-162.18740234 199.12605469 -162.18740234 199.12605469 -163.18359375 200.203125 C-177.59172415 214.36140342 -198.68218468 220.07094019 -218.2109375 222.0703125 C-219.149375 222.18117188 -220.0878125 222.29203125 -221.0546875 222.40625 C-249.24782987 225.21040663 -277.30704467 223.59081554 -300.5859375 205.6328125 C-313.30325393 193.21828932 -318.15499822 176.84975828 -318.45288086 159.42456055 C-318.51191544 142.1739416 -316.30807852 125.44184881 -304.1484375 112.1953125 C-284.10856123 93.85950734 -255.59508018 89.96255142 -229.81494141 86.30102539 C-211.55520873 83.72387612 -211.55520873 83.72387612 -196.2109375 74.0703125 C-193.36391845 69.79978393 -193.72142044 66.07783127 -194.2109375 61.0703125 C-195.56602497 57.17443603 -196.9906212 56.21436547 -200.4609375 53.9453125 C-214.89506207 47.44202561 -232.32530822 47.18498676 -247.2109375 52.0703125 C-252.18760776 54.34037262 -255.77017547 58.18878844 -258.2109375 63.0703125 C-276.0309375 63.0703125 -293.8509375 63.0703125 -312.2109375 63.0703125 C-310.39375649 44.89850236 -303.02052529 31.93488792 -289.2109375 20.0703125 C-282.35141002 14.87482134 -275.30059451 11.45470822 -267.2109375 8.6953125 C-266.51226563 8.45651367 -265.81359375 8.21771484 -265.09375 7.97167969 C-252.98643867 4.14102395 -240.72519801 3.69597652 -228.1484375 3.7578125 C-227.3791391 3.75963531 -226.6098407 3.76145813 -225.81723022 3.76333618 C-200.84840314 3.862811 -173.23305491 6.76029998 -154.20703125 24.84375 C-145.44498455 34.61746159 -140.32841668 46.38629716 -139.89453125 59.46484375 C-139.83168945 61.26791992 -139.83168945 61.26791992 -139.76757812 63.10742188 C-139.72826172 64.35330078 -139.68894531 65.59917969 -139.6484375 66.8828125 C-139.60525391 68.14802734 -139.56207031 69.41324219 -139.51757812 70.71679688 C-139.4116928 73.83453139 -139.30961345 76.95234285 -139.2109375 80.0703125 C-139.00339844 79.1009375 -138.79585937 78.1315625 -138.58203125 77.1328125 C-133.63812712 55.19061081 -123.40209713 33.02908703 -105.05859375 19.21484375 C-103.2109375 18.0703125 -103.2109375 18.0703125 -101.2109375 18.0703125 C-100.7984375 18.89273438 -100.3859375 19.71515625 -99.9609375 20.5625 C-93.93195424 32.21673996 -87.57927006 41.03499194 -76.2109375 48.0703125 C-77.2009375 47.2453125 -78.1909375 46.4203125 -79.2109375 45.5703125 C-80.54809695 44.40803306 -81.88120551 43.24108222 -83.2109375 42.0703125 C-83.85933594 41.5134375 -84.50773437 40.9565625 -85.17578125 40.3828125 C-91.71666766 34.37296835 -98.6362872 25.03029447 -100.2109375 16.0703125 C-78.26520328 5.68110854 -55.9840492 0.53346614 -32.19238281 8.76904297 C-27.80372905 10.39535326 -23.5066261 12.21229779 -19.2109375 14.0703125 C-17.54657639 14.74271439 -15.88084366 15.41180233 -14.2109375 16.0703125 C-36.06833242 1.86804207 -58.49017552 -1.88444835 -83.72265625 3.21875 C-87.20079938 4.00097883 -87.20079938 4.00097883 -90.41796875 5.234375 C-93.26511477 6.0865278 -94.48510701 6.11870884 -97.2109375 5.0703125 C-90.34859211 -7.02396288 -83.71188767 -15.47080924 -69.9609375 -19.8046875 C-45.61892107 -25.55638758 -19.57286161 -13.85921333 0 0 Z M-74.2109375 49.0703125 C-72.45849503 50.7186758 -72.45849503 50.7186758 -70.2109375 52.0703125 C-68.00293222 51.85313898 -68.00293222 51.85313898 -66.2109375 51.0703125 C-69.11694011 49.81366272 -71.00698334 49.0703125 -74.2109375 49.0703125 Z M-66.2109375 52.0703125 C-62.2109375 53.0703125 -62.2109375 53.0703125 -62.2109375 53.0703125 Z M-36.703125 51.55078125 C-39.69075899 51.99327047 -42.45849914 52.17674045 -45.46875 52.24609375 C-46.42394531 52.26994141 -47.37914062 52.29378906 -48.36328125 52.31835938 C-50.35264243 52.3614927 -52.34229764 52.39265305 -54.33203125 52.41210938 C-59.89166241 52.44368088 -59.89166241 52.44368088 -64.65625 54.94140625 C-65.16929687 55.64394531 -65.68234375 56.34648437 -66.2109375 57.0703125 C-67.13132812 57.74320312 -67.13132812 57.74320312 -68.0703125 58.4296875 C-79.96390235 67.17786516 -83.78605384 83.26080557 -86.2109375 97.0703125 C-89.40358219 118.21890516 -89.04932484 144.44765762 -76.2734375 162.5078125 C-70.25458625 169.88625197 -62.68678901 174.67680493 -53.2109375 176.0703125 C-39.15661852 177.06344054 -26.35818252 176.52342062 -15.171875 166.97265625 C-2.73496759 154.90736958 1.52198177 136.50053287 1.95703125 119.625 C2.16337081 98.70483065 -0.78797009 76.67686863 -15.578125 60.5703125 C-20.19871625 56.32555881 -24.85534587 53.54698187 -31.2109375 53.0703125 C-31.2109375 52.4103125 -31.2109375 51.7503125 -31.2109375 51.0703125 C-34.14299153 50.97566048 -34.14299153 50.97566048 -36.703125 51.55078125 Z M-195.30859375 114.953125 C-208.00241449 120.27148468 -221.50168114 123.11911205 -234.89453125 126.12890625 C-245.12740825 128.4676448 -255.97918723 130.99129702 -262.2109375 140.0703125 C-266.38910109 148.69744658 -267.49172247 155.50836183 -264.7109375 164.6328125 C-262.51492377 170.23965606 -259.35173197 173.93278135 -254.2109375 177.0703125 C-243.69231213 181.65773061 -228.55090226 180.22931442 -218.04296875 176.3984375 C-205.93600886 170.72069079 -198.77428199 162.52030671 -194.2109375 150.0703125 C-191.75318116 142.60381823 -191.98279724 135.37723706 -192.0859375 127.5703125 C-192.09496094 126.2709375 -192.10398437 124.9715625 -192.11328125 123.6328125 C-192.13672017 120.44511951 -192.1695331 117.2578143 -192.2109375 114.0703125 C-193.43663014 114.00566191 -193.43663014 114.00566191 -195.30859375 114.953125 Z " fill="#004924" transform="translate(1614.2109375,146.9296875)"/>
<path d="M0 0 C0.77450156 -0.00297112 1.54900313 -0.00594224 2.34697443 -0.0090034 C4.93287054 -0.01764972 7.51872012 -0.01919522 10.10462952 -0.02069092 C11.96292723 -0.02532214 13.82122399 -0.03034721 15.67951965 -0.03573608 C20.72339873 -0.04883672 25.76726451 -0.05530101 30.81115794 -0.05974674 C33.96752713 -0.06268252 37.12389272 -0.06678838 40.28026009 -0.07125092 C50.17036641 -0.08492252 60.06046447 -0.09458963 69.95057958 -0.09845281 C81.33919382 -0.10292649 92.72768761 -0.12044374 104.11626524 -0.1494534 C112.93608305 -0.17113375 121.75586715 -0.18116054 130.57571131 -0.18249393 C135.83496491 -0.18353783 141.09410524 -0.18935633 146.35333061 -0.20731354 C151.30854026 -0.22390334 156.26355284 -0.22589726 161.21878052 -0.21717453 C163.02661737 -0.21640984 164.83446529 -0.22067091 166.64227486 -0.23063278 C201.6458616 -0.41203452 231.52960646 13.80630181 257.12831116 37.14044189 C258.07448303 38.00282471 259.02065491 38.86520752 259.99549866 39.75372314 C278.5877271 57.52957895 288.75758414 79.9849313 297.56581116 103.76544189 C298.32477681 105.78535618 299.08522774 107.80471294 299.84706116 109.82354736 C301.03903362 112.98233465 302.23024172 116.14138023 303.417099 119.30209351 C307.64900205 130.56579666 311.99799766 141.78346034 316.358078 152.99804688 C317.61024654 156.21897465 318.86061761 159.44059473 320.11048889 162.66241455 C322.27576694 168.24184995 322.27576694 168.24184995 324.44276428 173.82061768 C324.73739563 174.58134583 325.03202698 175.34207397 325.33558655 176.12585449 C325.98545814 177.77740297 326.66852569 179.41585331 327.36073303 181.05010986 C328.12831116 183.14044189 328.12831116 183.14044189 328.12831116 186.14044189 C316.01821836 186.21031269 303.90817444 186.26344001 291.79792023 186.29587841 C286.17311422 186.31145638 280.5484473 186.33254897 274.92372131 186.36676025 C269.48367976 186.39963675 264.04377102 186.41735389 258.6036377 186.42507362 C256.54027215 186.43056681 254.4769129 186.44129171 252.41360474 186.45763206 C236.85539462 186.57581356 222.23985823 185.66917809 207.56581116 179.95294189 C206.77408508 179.65105957 205.98235901 179.34917725 205.16664124 179.03814697 C170.54273965 165.46212525 142.81028286 138.7197333 127.12831116 105.14044189 C123.34529943 96.31719524 120.01528651 87.30842895 116.62831116 78.32794189 C115.75433903 76.03132652 114.87934127 73.73510118 114.00331116 71.43927002 C112.63472982 67.8513047 111.26729359 64.2629325 109.90419006 60.67288208 C105.28732792 48.51463979 100.59992135 36.38376771 95.90956116 24.25372314 C95.52238419 23.25240042 95.13520721 22.25107769 94.73629761 21.21941185 C92.5346066 15.52604581 90.33188452 9.83307963 88.12831116 4.14044189 C88.1268446 4.98029098 88.12537804 5.82014006 88.12386703 6.68543911 C88.08670169 27.18731578 88.02755884 47.68902841 87.94440842 68.19077206 C87.90471793 78.10555708 87.87227494 88.02026389 87.85731506 97.93511963 C87.8442465 106.58399214 87.81715021 115.2326918 87.77369809 123.88146693 C87.75119957 128.4545312 87.73539344 133.02738322 87.73642731 137.60050774 C87.73718086 141.91885845 87.71895583 146.23674207 87.68714333 150.55497169 C87.67873472 152.12650287 87.6768316 153.69808701 87.68250847 155.26963043 C87.7255392 169.03204165 86.11671796 183.24808592 79.37831116 195.51544189 C79.03324524 196.16988281 78.68817932 196.82432373 78.33265686 197.49859619 C65.94920945 220.40727109 47.22010096 234.16524496 22.57752991 241.56231689 C16.24283533 243.0575877 10.07949455 243.28090234 3.6129303 243.25396729 C2.22151321 243.25418633 2.22151321 243.25418633 0.80198669 243.25440979 C-2.24421073 243.25371675 -5.29034594 243.24595294 -8.33653259 243.23809814 C-10.45645108 243.2362318 -12.57636999 243.23480892 -14.69628906 243.23381042 C-20.26111554 243.23000227 -25.82591569 243.22018657 -31.39073181 243.20910645 C-37.07513574 243.19885568 -42.75954395 243.19430496 -48.44395447 243.18927002 C-59.58654412 243.17856272 -70.72911429 243.16150681 -81.87168884 243.14044189 C-81.96541079 221.26883897 -82.03580396 199.39726949 -82.07893753 177.52550602 C-82.09950355 167.36851829 -82.12750927 157.21165583 -82.17344666 147.05474854 C-82.21349788 138.19501433 -82.23916489 129.33537091 -82.24804282 120.47554868 C-82.25322681 115.79063793 -82.26528461 111.10598675 -82.29460907 106.42115974 C-82.32206824 101.9978506 -82.33007331 97.57490416 -82.32411957 93.15151787 C-82.32520634 91.54124342 -82.33297659 89.93095489 -82.34851074 88.320755 C-82.47579823 74.42723724 -80.92986658 60.15981675 -74.12168884 47.76544189 C-73.77662292 47.11100098 -73.43155701 46.45656006 -73.07603455 45.7822876 C-61.78366439 24.8920437 -44.54935975 10.27843098 -21.89122009 3.21075439 C-14.55783851 1.13246812 -7.63828069 -0.00925057 0 0 Z M-40.87168884 44.14044189 C-41.43629822 44.68184814 -42.00090759 45.22325439 -42.58262634 45.78106689 C-54.33401635 58.0920469 -57.3503769 75.11582605 -57.21226501 91.44610596 C-57.21141653 92.83702069 -57.2118982 94.22793675 -57.21359253 95.61885071 C-57.21444527 99.35574523 -57.19693816 103.09234461 -57.17587066 106.82917118 C-57.15698194 110.74889144 -57.15534389 114.66862016 -57.15179443 118.58837891 C-57.14250949 125.99352254 -57.11794439 133.39853162 -57.08774596 140.80361629 C-57.05409066 149.2414417 -57.0376881 157.67927389 -57.02265966 166.11714983 C-56.9913912 183.45832471 -56.93870065 200.79936903 -56.87168884 218.14044189 C-48.3950908 218.2338491 -39.9187141 218.30456021 -31.44172573 218.34769058 C-27.50388621 218.36840946 -23.56640329 218.39643244 -19.62876892 218.44219971 C-15.81615855 218.48622755 -12.00388727 218.50969639 -8.19104195 218.51995087 C-6.74922929 218.52724174 -5.30743145 218.54147282 -3.86576653 218.56336212 C14.61541779 218.83235441 30.30012559 214.31646568 43.91737366 201.34356689 C44.64698303 200.61653564 45.37659241 199.88950439 46.12831116 199.14044189 C46.97522522 198.32833252 46.97522522 198.32833252 47.83924866 197.49981689 C59.59063866 185.18883689 62.60699922 168.16505774 62.46888733 151.83477783 C62.46803884 150.4438631 62.46852052 149.05294704 62.47021484 147.66203308 C62.47106758 143.92513856 62.45356048 140.18853918 62.43249297 136.45171261 C62.41360425 132.53199235 62.4119662 128.61226363 62.40841675 124.69250488 C62.39913181 117.28736125 62.37456671 109.88235217 62.34436828 102.4772675 C62.31071298 94.03944209 62.29431042 85.6016099 62.27928197 77.16373396 C62.24801352 59.82255908 62.19532297 42.48151476 62.12831116 25.14044189 C53.65171312 25.04703469 45.17533641 24.97632357 36.69834805 24.93319321 C32.76050853 24.91247433 28.82302561 24.88445135 24.88539124 24.83868408 C21.07278086 24.79465624 17.26050958 24.77118739 13.44766426 24.76093292 C12.00585161 24.75364205 10.56405376 24.73941097 9.12238884 24.71752167 C-10.80154567 24.42753025 -26.60396239 29.92313144 -40.87168884 44.14044189 Z M129.12831116 28.14044189 C129.76624678 33.47271112 131.47470639 38.0435055 133.44471741 42.99200439 C133.77946579 43.84611908 134.11421417 44.70023376 134.45910645 45.58023071 C135.53088666 48.31081631 136.61076188 51.03811799 137.69081116 53.76544189 C138.38990107 55.54388254 139.08847318 57.32252682 139.78651428 59.10137939 C141.53506895 63.55157376 143.29380875 67.99764607 145.057724 72.44177246 C145.78179291 74.26696029 146.50468158 76.0926167 147.22648621 77.91870117 C148.29794441 80.62906523 149.37283401 83.33804458 150.44862366 86.04669189 C150.76976639 86.86030182 151.09090912 87.67391174 151.42178345 88.51217651 C162.67452638 116.75494153 184.45692079 138.38582389 211.92274475 151.20196533 C223.83145693 156.26916586 235.77692173 158.30062692 248.65174866 158.23809814 C249.75306122 158.2366832 250.85437378 158.23526825 251.98905945 158.23381042 C255.49383807 158.22822942 258.99855196 158.21568036 262.50331116 158.20294189 C264.88482065 158.19792444 267.26633115 158.19336196 269.64784241 158.18927002 C275.47468728 158.1782662 281.30149459 158.16154696 287.12831116 158.14044189 C285.11338206 151.94452194 282.93469418 145.8305254 280.61659241 139.74200439 C280.28467392 138.86756683 279.95275543 137.99312927 279.61077881 137.0921936 C278.90998858 135.24804549 278.20821669 133.40427015 277.50550842 131.56085205 C276.457349 128.80886274 275.4147297 126.0548194 274.37245178 123.30059814 C270.97830559 114.36490596 267.49770074 105.47565022 263.79237366 96.66387939 C263.46759537 95.89145905 263.14281708 95.1190387 262.80819702 94.32321167 C251.24033715 67.10185359 228.43200188 45.42742599 201.12831116 34.14044189 C189.57341627 29.7972055 179.00808395 27.98157839 166.72596741 28.04278564 C165.10941505 28.04490807 165.10941505 28.04490807 163.46020508 28.04707336 C160.03704487 28.05264579 156.61395141 28.06519322 153.19081116 28.07794189 C150.86203606 28.08296046 148.53325994 28.08752274 146.20448303 28.09161377 C140.51240318 28.10260619 134.82036194 28.11931676 129.12831116 28.14044189 Z " fill="#004924" transform="translate(81.87168884277344,246.85955810546875)"/>
<path d="M0 0 C12.14463443 -0.0698016 24.28922038 -0.12296358 36.43401527 -0.15543652 C42.07457234 -0.17102931 47.7149912 -0.19214982 53.35546875 -0.22631836 C58.80846879 -0.25914093 64.26133667 -0.27690092 69.71442795 -0.28463173 C71.78502861 -0.29013441 73.85562281 -0.30087864 75.92616653 -0.31719017 C101.56171703 -0.51093885 124.32991129 4.85911499 143.25 23.25390625 C144.61125 24.61322266 144.61125 24.61322266 146 26 C146.7425 26.73089844 147.485 27.46179688 148.25 28.21484375 C164.28047923 45.02806122 169.28933876 66.84480798 169.31884766 89.37353516 C169.32816063 91.01046231 169.33833132 92.64738478 169.34928894 94.28430176 C169.3764487 98.7009142 169.39169648 103.117495 169.40471697 107.53416872 C169.42040926 112.15997198 169.44717987 116.78571119 169.4727478 121.41146851 C169.51942804 130.15885519 169.55622403 138.90625407 169.58942068 147.65370119 C169.62771829 157.61750753 169.67710832 167.58124939 169.72740483 177.54500127 C169.83056463 198.02995315 169.91987664 218.51494591 170 239 C172.69913826 232.00858941 175.39812008 225.01711845 178.09692448 218.02557898 C179.35132422 214.77593642 180.60576963 211.52631151 181.8603363 208.2767334 C187.80502985 192.87867466 193.74404247 177.47845098 199.66955566 162.07299805 C200.02460426 161.15000506 200.37965286 160.22701208 200.74546051 159.27604961 C201.47752412 157.3714857 202.20875846 155.46660289 202.93929291 153.56145191 C203.30189461 152.61625533 203.66449631 151.67105875 204.03808594 150.69721985 C204.35964661 149.85815251 204.68120728 149.01908518 205.01251221 148.15459156 C210.99208039 132.7337477 218.21229703 118.61449042 229 106 C229.44102051 105.48066895 229.88204102 104.96133789 230.33642578 104.42626953 C236.58981557 97.14078874 243.3476837 90.8240805 251 85 C251.84949219 84.33484375 252.69898438 83.6696875 253.57421875 82.984375 C273.91522056 67.53859186 298.72768992 56.77906163 324.51538086 56.88647461 C325.44299225 56.88632858 326.37060364 56.88618256 327.32632446 56.8860321 C330.37252189 56.88672515 333.41865709 56.89448895 336.46484375 56.90234375 C338.58476223 56.90421009 340.70468115 56.90563297 342.82460022 56.90663147 C348.3894267 56.91043962 353.95422685 56.92025533 359.51904297 56.93133545 C365.2034469 56.94158621 370.88785511 56.94613693 376.57226562 56.95117188 C387.71485528 56.96187917 398.85742545 56.97893509 410 57 C409.16323236 61.52733798 407.72356848 65.66833637 406.0703125 69.953125 C405.76813309 70.74548553 405.46595367 71.53784607 405.15461731 72.35421753 C404.14886153 74.98774074 403.13714445 77.61892615 402.125 80.25 C401.41461001 82.10393306 400.70440868 83.95793843 399.99438477 85.81201172 C398.07518733 90.81866219 396.14955759 95.82281577 394.22210693 100.82629395 C392.97823603 104.05651915 391.7362582 107.28746725 390.49462891 110.51855469 C388.39105944 115.99093608 386.28261219 121.46141623 384.17059326 126.93054199 C383.35823536 129.03504073 382.54689007 131.13993067 381.7366333 133.24523926 C371.85938135 158.89296674 362.16641546 181.69395984 343 202 C342.06607422 203.01320312 342.06607422 203.01320312 341.11328125 204.046875 C320.28195556 225.88264616 288.81088621 242.45762613 258.36122501 243.34684253 C254.23572944 243.40744463 250.11189527 243.40353687 245.98608398 243.38818359 C244.12483413 243.39225885 242.26358669 243.39760603 240.40234375 243.40411377 C235.39205976 243.41767887 230.38196307 243.41253406 225.37167621 243.40297651 C220.10252082 243.39532457 214.83338033 243.40244067 209.56422424 243.40713501 C200.72060295 243.41257608 191.87705708 243.4054439 183.03344727 243.39111328 C172.83992325 243.37478493 162.64657928 243.38008334 152.45305961 243.3965925 C143.66618362 243.41024847 134.87936152 243.41210714 126.09247833 243.40427649 C120.85967662 243.39962316 115.62695927 243.39891029 110.39416313 243.40888596 C105.47328473 243.41761365 100.55263634 243.41142877 95.63178253 243.39420319 C93.83642774 243.39026934 92.04105326 243.39131848 90.24570656 243.39799118 C65.75896619 243.48054255 43.67597373 237.17437064 25.75 219.74609375 C24.8425 218.83988281 23.935 217.93367187 23 217 C21.88625 215.90365234 21.88625 215.90365234 20.75 214.78515625 C4.59924645 197.84579168 -0.33456128 175.92366789 -0.22705078 153.25927734 C-0.22648577 151.58294685 -0.22680498 149.90661586 -0.22793579 148.23028564 C-0.22850679 143.70618471 -0.21679358 139.18219104 -0.20278788 134.65811491 C-0.19023822 129.92024506 -0.18910669 125.18237243 -0.18673706 120.44448853 C-0.1805347 111.48455826 -0.16414079 102.52467712 -0.14403808 93.56476843 C-0.12164027 83.35917534 -0.1106759 73.15357982 -0.10064721 62.94796824 C-0.07977341 41.9652848 -0.04462172 20.9826455 0 0 Z M25 25 C24.92975848 43.17684472 24.8769379 61.35365397 24.84456348 79.53060532 C24.82912849 87.97145896 24.80810378 96.41222801 24.77368164 104.85302734 C24.74367572 112.2144493 24.72440055 119.57580996 24.71773452 126.93729138 C24.71384111 130.8311429 24.70476229 134.72481914 24.68280983 138.6186142 C24.66226726 142.29250873 24.65620158 145.96615777 24.66067696 149.64010429 C24.6594734 151.61307299 24.64342512 153.58601568 24.6267395 155.55891418 C24.68489366 172.52139437 29.84823013 187.58955624 41.83203125 199.89453125 C42.54746094 200.58933594 43.26289062 201.28414062 44 202 C44.54011719 202.56074219 45.08023438 203.12148437 45.63671875 203.69921875 C58.40691123 215.95474352 75.94181052 218.48309677 92.828125 218.29296875 C94.31312629 218.28735808 95.79813321 218.28309496 97.28314209 218.28010559 C101.14979995 218.26877232 105.01610775 218.23940791 108.88262939 218.20599365 C112.84488187 218.17504095 116.80719215 218.16154699 120.76953125 218.14648438 C128.51317865 218.11452421 136.25653986 218.06347177 144 218 C144.09375058 199.8749861 144.16412889 181.75003577 144.20724869 163.6248312 C144.22780876 155.20756831 144.25580272 146.79045673 144.30175781 138.37329102 C144.34182769 131.03051759 144.36748036 123.68785384 144.37635398 116.3449741 C144.38153492 112.46270314 144.39357221 108.5807457 144.42292023 104.69857597 C144.45040939 101.03200877 144.45837881 97.36587922 144.45243073 93.69921875 C144.45402726 91.73753727 144.47537242 89.7759016 144.49768066 87.81434631 C144.41284569 69.19213719 138.16472887 54.2114123 125 41 C124.45859375 40.43539062 123.9171875 39.87078125 123.359375 39.2890625 C110.54939785 27.06135704 93.08170678 24.51663844 76.171875 24.70703125 C74.68687371 24.71264192 73.20186679 24.71690504 71.71685791 24.71989441 C67.85020005 24.73122768 63.98389225 24.76059209 60.11737061 24.79400635 C56.15511813 24.82495905 52.19280785 24.83845301 48.23046875 24.85351562 C40.48682135 24.88547579 32.74346014 24.93652823 25 25 Z M252.4375 122.6875 C240.66556658 136.12331094 233.95676895 152.11444984 227.6015625 168.6328125 C227.11711719 169.88508654 226.63244238 171.13727182 226.14755249 172.38937378 C225.14487352 174.98148963 224.14529041 177.57477124 223.14794922 180.16894531 C221.86990673 183.49232898 220.5833366 186.81233878 219.29445839 190.13153267 C218.05871979 193.31762245 216.83050279 196.50659424 215.6015625 199.6953125 C215.13916168 200.88585236 214.67676086 202.07639221 214.2003479 203.30300903 C213.77925751 204.40200531 213.35816711 205.50100159 212.92431641 206.63330078 C212.36522079 208.08339035 212.36522079 208.08339035 211.79483032 209.56277466 C210.84497508 212.04810071 210.84497508 212.04810071 211 215 C217.70361869 215.0769221 224.407121 215.12896018 231.11108398 215.16479492 C233.38521579 215.17975526 235.65931938 215.20013086 237.93334961 215.22631836 C253.69349677 215.40308711 268.71035387 215.33158039 283.4375 208.9375 C284.13649414 208.63932373 284.83548828 208.34114746 285.55566406 208.03393555 C298.59449045 202.25662888 309.51438145 194.41040574 319.59521484 184.38574219 C320.86818058 183.1300325 322.1764448 181.91035725 323.48828125 180.6953125 C331.80259229 172.85487411 337.96120054 163.6891193 342.76953125 153.3828125 C343.28028702 152.29143478 343.28028702 152.29143478 343.80136108 151.17800903 C348.04913248 141.93056747 351.57118832 132.40482208 355.125 122.875 C356.14590718 120.15533438 357.16882728 117.43643544 358.19256592 114.71783447 C358.85422302 112.96057085 359.51476947 111.20288858 360.1741333 109.44476318 C362.66181242 102.83136245 365.2756521 96.27671545 367.96435547 89.74267578 C369.11775268 87.1767737 369.11775268 87.1767737 369 85 C362.13565336 84.923185 355.27141979 84.8710832 348.40673828 84.83520508 C346.07726906 84.82022923 343.7478275 84.7998414 341.41845703 84.77368164 C305.31641233 84.37874293 277.54741874 96.10052721 252.4375 122.6875 Z " fill="#004924" transform="translate(0,0)"/>
<path d="M0 0 C22.8450316 17.81972768 30.60475679 44.06373164 34.8515625 71.66796875 C34.8515625 82.88796875 34.8515625 94.10796875 34.8515625 105.66796875 C-10.3584375 105.66796875 -55.5684375 105.66796875 -102.1484375 105.66796875 C-97.36799256 130.81307853 -97.36799256 130.81307853 -81.1484375 148.66796875 C-70.82214427 154.17737706 -56.80661636 154.52633165 -45.5859375 151.48046875 C-44.08903368 150.92169301 -42.60786684 150.31836661 -41.1484375 149.66796875 C-40.395625 149.35085938 -39.6428125 149.03375 -38.8671875 148.70703125 C-33.05848455 145.90214387 -29.41087507 141.95927557 -25.38671875 136.97265625 C-20.76187173 132.21059736 -15.44846646 130.83357423 -8.95506287 130.58349609 C-6.35481158 130.55247225 -3.7566429 130.55555733 -1.15625 130.5703125 C-0.21030975 130.57172745 0.73563049 130.5731424 1.7102356 130.57460022 C4.71571079 130.58017391 7.72111003 130.59272155 10.7265625 130.60546875 C12.77083225 130.61048715 14.81510318 130.61504946 16.859375 130.61914062 C21.85679986 130.63013472 26.85416833 130.64738118 31.8515625 130.66796875 C29.7803032 146.2652313 22.10465516 159.94149861 11.8515625 171.66796875 C11.32046875 172.28285156 10.789375 172.89773438 10.2421875 173.53125 C-5.81481138 190.82034533 -30.55031415 199.69197819 -53.70410156 200.7890625 C-80.44674908 201.7231403 -106.34355469 197.54890719 -126.8359375 178.98046875 C-149.80645903 157.28195254 -157.99472122 127.42171831 -159.1484375 96.66796875 C-159.1896875 95.59933594 -159.2309375 94.53070313 -159.2734375 93.4296875 C-159.85676434 62.40399093 -153.32561924 31.32536097 -132.1484375 7.66796875 C-131.60832031 7.03375 -131.06820312 6.39953125 -130.51171875 5.74609375 C-99.35387601 -28.472595 -35.07568397 -25.98037634 0 0 Z M-91.3984375 39.79296875 C-99.07884016 49.07983013 -100.39802784 57.4151011 -102.1484375 69.66796875 C-75.7484375 69.66796875 -49.3484375 69.66796875 -22.1484375 69.66796875 C-24.93997476 50.63260843 -24.93997476 50.63260843 -36.1484375 35.66796875 C-53.10862461 24.1243859 -76.80862742 24.54988359 -91.3984375 39.79296875 Z " fill="#004924" transform="translate(1022.1484375,169.33203125)"/>
<path d="M0 0 C15.97562361 13.19104013 22.22671267 33.47696523 24.21556091 53.51069641 C24.79127546 60.06943673 24.80865332 66.59644905 24.78930664 73.17651367 C24.78945267 74.49485199 24.78959869 75.81319031 24.78974915 77.17147827 C24.79003356 80.75130522 24.78419489 84.33109797 24.77717519 87.91091704 C24.7708819 91.66516298 24.77033316 95.41940988 24.76914978 99.17366028 C24.76605396 106.26711967 24.75786438 113.36056347 24.74780029 120.45401603 C24.73658454 128.53634009 24.73111499 136.61866493 24.72610486 144.70099485 C24.71568013 161.31239108 24.69811489 177.92377167 24.67578125 194.53515625 C19.99848839 194.60992239 15.32155174 194.66404579 10.64379883 194.69995117 C9.05617199 194.71493638 7.46858582 194.73533171 5.88110352 194.76147461 C-5.71167725 194.94745505 -15.67465992 194.98389308 -24.59765625 186.55859375 C-31.80090246 178.11678032 -31.47129393 167.57663456 -31.46606445 157.08300781 C-31.46953888 155.94873352 -31.47301331 154.81445923 -31.47659302 153.64581299 C-31.4839269 151.18992855 -31.48928485 148.73403759 -31.49288368 146.27814484 C-31.50007582 142.38473703 -31.51576295 138.49145331 -31.53422546 134.5980835 C-31.54056176 133.26051717 -31.5468874 131.92295079 -31.55320263 130.58538437 C-31.55636844 129.91580184 -31.55953425 129.24621932 -31.562796 128.55634642 C-31.60472745 119.50274923 -31.63783094 110.44919571 -31.65014648 101.39550781 C-31.65945988 94.6180931 -31.68963436 87.84100327 -31.73146629 81.06371307 C-31.74374333 78.48828264 -31.74890361 75.91280766 -31.74666786 73.33734894 C-31.7443042 69.72618701 -31.76656321 66.115923 -31.79418945 62.50488281 C-31.78758804 61.45204102 -31.78098663 60.39919922 -31.77418518 59.31445312 C-31.88190193 50.69311081 -33.51810804 42.38434994 -39.32421875 35.72265625 C-49.23292964 26.80266705 -60.54621069 24.76663163 -73.33251953 25.35595703 C-82.20786051 26.15449837 -89.69189335 30.83026179 -95.8203125 37.0546875 C-102.96156796 45.76405247 -102.76869266 58.07427686 -102.7565918 68.74902344 C-102.76563232 70.13009504 -102.77596506 71.51115869 -102.78747559 72.89221191 C-102.8148034 76.60214866 -102.8242967 80.31193219 -102.83032966 84.02195644 C-102.83977716 87.91372564 -102.86598513 91.80538318 -102.89033508 95.69708252 C-102.93382976 103.0490153 -102.96248089 110.40092619 -102.98565847 117.75294805 C-103.01280203 126.13039905 -103.05670748 134.50773679 -103.10194719 142.88510656 C-103.19454927 160.10174401 -103.26412931 177.31836996 -103.32421875 194.53515625 C-121.80421875 194.53515625 -140.28421875 194.53515625 -159.32421875 194.53515625 C-159.39224729 177.01798254 -159.44738038 159.50092366 -159.47965527 141.98365402 C-159.49504718 133.84794089 -159.51598752 125.71231636 -159.55053711 117.57666016 C-159.58067705 110.47591976 -159.59984932 103.37524361 -159.60648423 96.274441 C-159.61035541 92.52341255 -159.61928739 88.77256771 -159.64140892 85.02159882 C-159.97331271 26.38787692 -159.97331271 26.38787692 -140.2734375 5.36328125 C-104.29244777 -28.38241653 -38.66752548 -29.75402006 0 0 Z " fill="#004924" transform="translate(1220.32421875,171.46484375)"/>
<path d="M0 0 C0.33 0 0.66 0 1 0 C1.33 26.4 1.66 52.8 2 80 C8.87167587 72.42707698 8.87167587 72.42707698 15.375 64.625 C19.05571847 60.07219493 22.92648648 55.76582589 26.91137695 51.4831543 C30.71385014 47.37239043 34.24263299 43.07733477 37.75390625 38.71484375 C40.0883059 35.89326505 42.51990598 33.19409288 45 30.5 C49.04911067 26.09988283 52.87193797 21.57152436 56.6015625 16.8984375 C57.39304687 15.94195312 58.18453125 14.98546875 59 14 C59.47569427 13.26710251 59.95138855 12.53420502 60.4414978 11.77909851 C63.30170656 7.83331405 65.46398406 5.36844876 70.30654907 4.20684814 C74.38012322 3.95868373 78.36277537 3.98549383 82.4375 4.12109375 C83.92818335 4.13790548 85.41891686 4.15070455 86.90966797 4.15968323 C90.81052906 4.19385027 94.70831522 4.28206891 98.60797119 4.38201904 C102.59629725 4.47452468 106.58512635 4.51528335 110.57421875 4.56054688 C118.38420596 4.65671954 126.19167021 4.81006533 134 5 C132.44673033 8.24256133 130.75257927 10.59147554 128.3125 13.25 C127.508125 14.12785156 126.70375 15.00570312 125.875 15.91015625 C120.58539597 21.60737536 115.26300581 27.27386684 109.9375 32.9375 C106.88977824 36.18184897 103.85002856 39.4336088 100.8125 42.6875 C100.23338867 43.30786133 99.65427734 43.92822266 99.05761719 44.56738281 C94.89503099 49.03082222 90.75131012 53.51129451 86.62182617 58.00537109 C83.81429544 61.05498663 80.98298694 64.07979801 78.12890625 67.0859375 C77.46431396 67.7879126 76.79972168 68.4898877 76.11499023 69.21313477 C74.83023395 70.56850457 73.54221126 71.92078906 72.25024414 73.26928711 C68.14132538 77.60941244 64.48451019 82.1449158 61 87 C69.4217172 101.81740149 77.89200621 116.59861753 86.59375 131.25390625 C90.5668689 137.94615789 94.50312747 144.6599316 98.4375 151.375 C98.79896118 151.99183655 99.16042236 152.6086731 99.53283691 153.24420166 C104.99005348 162.55803409 110.44054861 171.87580577 115.87133789 181.20507812 C118.89362661 186.39643784 121.9286162 191.57986057 124.98046875 196.75390625 C125.63184814 197.86145264 126.28322754 198.96899902 126.9543457 200.11010742 C128.21110062 202.246447 129.47122372 204.38080961 130.73510742 206.51293945 C131.29431885 207.46515381 131.85353027 208.41736816 132.4296875 209.3984375 C132.92710449 210.24067871 133.42452148 211.08291992 133.93701172 211.95068359 C135 214 135 214 135 216 C112.89 216 90.78 216 68 216 C57.70086505 197.69042676 57.70086505 197.69042676 52.75 188.5 C52.20698242 187.49590088 51.66396484 186.49180176 51.10449219 185.45727539 C48.25856262 180.19377858 45.42238752 174.92515168 42.59375 169.65234375 C32.02737945 146.07236449 32.02737945 146.07236449 15 128 C10.81855989 127.60552452 8.69053952 127.54964814 5.125 129.875 C1.43793351 133.56206649 1.83223933 136.79724994 1.79467773 141.75439453 C1.78477814 142.55447937 1.77487854 143.35456421 1.76467896 144.17889404 C1.73302738 146.83016983 1.70829211 149.48146356 1.68359375 152.1328125 C1.66302738 153.96841911 1.64203099 155.80402096 1.62062073 157.63961792 C1.56536732 162.47617739 1.51597248 167.31277983 1.46777344 172.14941406 C1.40876116 177.94974987 1.34251523 183.75000698 1.27747345 189.55027771 C1.17942281 198.36680383 1.09059492 207.18337991 1 216 C-17.48 216 -35.96 216 -55 216 C-55.48196402 186.45292795 -55.48196402 186.45292795 -55.60304642 171.81211567 C-55.66943674 163.90698103 -55.75358729 156.00337288 -55.90527344 148.09936523 C-56.02535451 141.83920819 -56.10240659 135.58020486 -56.12906194 129.31892806 C-56.14463338 126.00649312 -56.18728043 122.69810326 -56.26876068 119.38654137 C-56.78352359 97.59137536 -56.78352359 97.59137536 -52.40466309 92.02700806 C-49.59432972 89.17500943 -46.38808872 87.12369826 -43 85 C-19.68240813 62.53080465 -5.68697683 31.49710246 0 0 Z " fill="#004924" transform="translate(572,150)"/>
<path d="M0 0 C4.80133868 -0.12473502 9.60170955 -0.21486503 14.40429688 -0.2746582 C16.03369603 -0.29961442 17.66298542 -0.33359254 19.29199219 -0.37719727 C29.96137358 -0.65538666 38.82498532 -0.69646876 47.12646484 6.96166992 C53.09259046 13.05889266 55.34220843 19.76325735 55.33988953 28.1574707 C55.32440567 29.01300537 55.30892181 29.86854004 55.29296875 30.75 C55.28872391 31.64871826 55.28447906 32.54743652 55.28010559 33.47338867 C55.26344584 36.31591012 55.22581832 39.15769645 55.1875 42 C55.17243671 43.93879177 55.15875119 45.87759477 55.14648438 47.81640625 C55.11614839 52.54477505 55.05740445 57.27157438 55 62 C65.56 62 76.12 62 87 62 C87.63224782 83.33836378 87.63224782 83.33836378 80.75 91.75 C74.11694791 97.17704262 68.92684101 100.16579573 60.25 100.0625 C59.26515625 100.05347656 58.2803125 100.04445313 57.265625 100.03515625 C56.51796875 100.02355469 55.7703125 100.01195312 55 100 C55.06054188 115.42943562 55.13804698 130.8587171 55.23571491 146.2879591 C55.28066953 153.45213029 55.32008489 160.61625181 55.34643555 167.78051758 C55.36941842 174.02531766 55.40281951 180.2699605 55.44870156 186.51463586 C55.47263021 189.82080417 55.48980731 193.12678349 55.49761391 196.4330349 C55.50721561 200.12510802 55.53522921 203.81661136 55.56762695 207.50854492 C55.56619186 208.60330643 55.56475677 209.69806793 55.5632782 210.82600403 C55.56648671 217.93522809 55.56648671 217.93522809 59 224 C62.51275726 226.6699884 65.14818224 227.38961403 69.51953125 227.51171875 C70.44096924 227.54483154 71.36240723 227.57794434 72.31176758 227.61206055 C73.46700928 227.63695557 74.62225098 227.66185059 75.8125 227.6875 C81.3503125 227.8421875 81.3503125 227.8421875 87 228 C87 241.86 87 255.72 87 270 C24.44042451 273.07670043 24.44042451 273.07670043 11.109375 262.5 C3.32509464 255.43527497 0.566526 245.7861649 -0.18024468 235.52277064 C-0.24926544 232.9336836 -0.25733132 230.35199898 -0.24050903 227.76205444 C-0.24221788 226.78162473 -0.24392673 225.80119502 -0.24568737 224.79105532 C-0.24895988 221.53299049 -0.23801564 218.27513543 -0.22705078 215.01708984 C-0.22648618 212.67081711 -0.22680418 210.32454402 -0.22793579 207.97827148 C-0.2285084 201.62779536 -0.21676879 195.27739515 -0.20278788 188.92693663 C-0.19153516 182.95690052 -0.18953953 176.98686424 -0.18748413 171.01681955 C-0.18311547 159.19821049 -0.16982896 147.37962917 -0.15087891 135.56103516 C-0.13249858 124.08577614 -0.11835263 112.61052468 -0.10986328 101.13525391 C-0.10933783 100.42697619 -0.10881239 99.71869848 -0.10827102 98.98895781 C-0.10566079 95.43545524 -0.10313341 91.88195262 -0.10064721 88.32844996 C-0.07994055 58.88561544 -0.0445882 29.44280802 0 0 Z " fill="#004924" transform="translate(784,95)"/>
<path d="M0 0 C41.63291139 0 41.63291139 0 50.4296875 8.73046875 C55.30100528 15.77085588 56.5841192 22.20470185 56.48101807 30.64918518 C56.48443577 31.6859302 56.48785347 32.72267522 56.49137473 33.79083675 C56.49793445 37.24569106 56.47600831 40.69975894 56.45410156 44.15454102 C56.45297268 46.63859539 56.45360775 49.12265111 56.45587158 51.60670471 C56.45678083 56.94488596 56.44547626 62.28282499 56.42292023 67.62094307 C56.39033002 75.33880076 56.37998607 83.05656403 56.37496826 90.77448308 C56.36622658 103.29803272 56.3396417 115.82147779 56.30175781 128.3449707 C56.26500848 140.50609822 56.23671105 152.66719727 56.21972656 164.82836914 C56.21867567 165.57872751 56.21762477 166.32908589 56.21654204 167.1021824 C56.21132166 170.86673246 56.20626688 174.63128273 56.20129442 178.39583313 C56.15986747 209.59731477 56.08614869 240.79860183 56 272 C37.52 272 19.04 272 0 272 C0 182.24 0 92.48 0 0 Z " fill="#004924" transform="translate(714,94)"/>
<path d="M0 0 C0 18.81 0 37.62 0 57 C-8.58 57.33 -17.16 57.66 -26 58 C-37.7889169 59.82773905 -46.82590084 62.34989827 -54.5 71.8359375 C-61.41674945 81.81478957 -62.29494368 93.15537975 -62.31884766 104.96728516 C-62.33391609 106.69585754 -62.33391609 106.69585754 -62.34928894 108.45935059 C-62.37996857 112.23591655 -62.39711376 116.01241211 -62.4140625 119.7890625 C-62.43278638 122.42036539 -62.45236069 125.05166235 -62.4727478 127.68295288 C-62.51934062 133.88038027 -62.55617836 140.07782481 -62.58942068 146.27533662 C-62.63155124 154.03127588 -62.6868649 161.78711429 -62.7421875 169.54296875 C-62.84070061 183.36192349 -62.91943454 197.18090311 -63 211 C-81.48 211 -99.96 211 -119 211 C-119.12049101 182.02414457 -119.12049101 182.02414457 -119.1507616 167.58698559 C-119.16730811 159.81647852 -119.18822733 152.04606933 -119.22631836 144.27563477 C-119.25973945 137.45452228 -119.27690744 130.63351572 -119.28463173 123.81232643 C-119.29012885 121.22392934 -119.30086174 118.63553733 -119.31719017 116.0471859 C-119.50268222 85.39420845 -116.29483169 54.1368314 -94.01025391 30.95263672 C-92.68722753 29.62130972 -91.34417701 28.30996891 -90 27 C-89.34515625 26.33613281 -88.6903125 25.67226562 -88.015625 24.98828125 C-72.70459113 10.42971272 -50.58167113 4.22388623 -30.25 1.25 C-29.41871582 1.12222168 -28.58743164 0.99444336 -27.73095703 0.86279297 C-18.35002577 -0.3944817 -9.7129935 0 0 0 Z " fill="#004924" transform="translate(1794,155)"/>
<path d="M0 0 C40.95982143 0 40.95982143 0 50 9 C54.62875443 15.07955805 56.15048338 19.99007212 56.12025452 27.61186218 C56.12110894 28.39438396 56.12196337 29.17690573 56.12284368 29.98314029 C56.12449488 32.61337635 56.11898298 35.24354908 56.11352539 37.8737793 C56.11324342 39.75597126 56.11340146 41.63816333 56.1139679 43.52035522 C56.11425547 48.63779255 56.10836522 53.75520657 56.10139394 58.87263846 C56.09515371 64.21781023 56.09455607 69.5629825 56.09336853 74.90815735 C56.0902572 85.03348766 56.08204646 95.15880721 56.07201904 105.28413278 C56.06085178 116.80997919 56.05534591 128.3358261 56.05032361 139.86167657 C56.03986369 163.5744584 56.02152065 187.28722546 56 211 C37.52 211 19.04 211 0 211 C0 141.37 0 71.74 0 0 Z " fill="#004924" transform="translate(1799,155)"/>
<path d="M0 0 C0.02578125 1.21171875 0.0515625 2.4234375 0.078125 3.671875 C0.92307951 32.14454284 10.09655616 58.29355637 20.5 84.5625 C30.21151749 109.3441944 28.94340918 134.77776193 18.34350586 159.11865234 C12.60656482 171.58890244 5.06390368 182.7073629 -4 193 C-4.7528125 193.86238281 -5.505625 194.72476563 -6.28125 195.61328125 C-19.56128664 210.59880205 -19.56128664 210.59880205 -25 213 C-24.46335422 209.28181135 -23.62403293 207.25076154 -21.25 204.375 C-16.22893066 197.28001071 -14.91625524 188.33486239 -13 180 C-12.67 180 -12.34 180 -12 180 C-12.33 183.3 -12.66 186.6 -13 190 C-5.19702417 171.69807636 0.40485774 154.92537794 0.3125 134.8125 C0.30686035 133.52891602 0.3012207 132.24533203 0.29541016 130.92285156 C0.09382618 115.1593836 -3.4025449 101.63671106 -9 87 C-8.79503906 88.05058594 -8.59007812 89.10117188 -8.37890625 90.18359375 C-8.10658787 91.60152737 -7.83446289 93.01949815 -7.5625 94.4375 C-7.42779297 95.12521484 -7.29308594 95.81292969 -7.15429688 96.52148438 C-3.28313624 116.82147308 -2.55181947 140.94747132 -8 161 C-8.32991943 162.2367749 -8.32991943 162.2367749 -8.66650391 163.49853516 C-11.08030375 172.37503721 -13.50497775 180.92712165 -18 189 C-18.66 189.33 -19.32 189.66 -20 190 C-20.11480713 189.44352783 -20.22961426 188.88705566 -20.34790039 188.3137207 C-24.71826325 167.43120039 -31.29196437 148.03471231 -39.73657227 128.47436523 C-50.88809567 102.33507775 -52.8350712 75.53035189 -42.375 48.875 C-36.77253165 36.61696774 -15.52206137 0 0 0 Z M-15 192 C-14 194 -14 194 -14 194 Z " fill="#85C346" transform="translate(542,27)"/>
<path d="M0 0 C7.65843755 5.57634166 14.94832376 11.50775538 21.7890625 18.0703125 C22.45550781 18.70839844 23.12195312 19.34648437 23.80859375 20.00390625 C27.04796854 23.17508368 30.14689939 26.37128414 32.7890625 30.0703125 C32.7890625 30.7303125 32.7890625 31.3903125 32.7890625 32.0703125 C31.20109863 32.38053345 31.20109863 32.38053345 29.58105469 32.69702148 C17.34552035 35.19322921 5.7855803 38.93855725 -5.9609375 43.1328125 C-35.59882858 53.68985211 -35.59882858 53.68985211 -51.3359375 53.5078125 C-52.28170654 53.49951416 -53.22747559 53.49121582 -54.2019043 53.48266602 C-66.04493579 53.19669095 -74.43434817 50.0565148 -83.2109375 42.0703125 C-84.22607422 41.20986328 -84.22607422 41.20986328 -85.26171875 40.33203125 C-91.7799924 34.42128602 -98.6552252 24.92253462 -100.2109375 16.0703125 C-78.26520328 5.68110854 -55.9840492 0.53346614 -32.19238281 8.76904297 C-27.80372905 10.39535326 -23.5066261 12.21229779 -19.2109375 14.0703125 C-17.54657639 14.74271439 -15.88084366 15.41180233 -14.2109375 16.0703125 C-36.06833242 1.86804207 -58.49017552 -1.88444835 -83.72265625 3.21875 C-87.20079938 4.00097883 -87.20079938 4.00097883 -90.41796875 5.234375 C-93.26511477 6.0865278 -94.48510701 6.11870884 -97.2109375 5.0703125 C-90.34859211 -7.02396288 -83.71188767 -15.47080924 -69.9609375 -19.8046875 C-45.61892107 -25.55638758 -19.57286161 -13.85921333 0 0 Z " fill="#85C346" transform="translate(1614.2109375,146.9296875)"/>
<path d="M0 0 C2.92589939 1.32879274 5.04107669 2.80336629 7.375 5 C20.54175861 16.70378543 34.61082296 24.57784787 51.5 29.5 C69.63191599 34.80286823 84.70630853 42.32401804 94.5390625 59.18359375 C102.86747233 75.23916457 104.8995479 90.31276487 101 108 C99 107 99 107 98.140625 104.4453125 C97.84671875 103.34960938 97.5528125 102.25390625 97.25 101.125 C92.14833223 83.96313967 81.32675789 70.65002852 65.9375 61.6875 C65.35983887 61.34960449 64.78217773 61.01170898 64.18701172 60.66357422 C60.18584218 58.42305541 56.41118955 57.1070119 52 56 C52.82242188 56.54527344 53.64484375 57.09054688 54.4921875 57.65234375 C70.61504517 68.47776038 87.16390222 83.02469307 91.65234375 102.88671875 C91.9375 105.375 91.9375 105.375 92 109 C88.95923886 107.34140302 86.45359492 105.53708864 83.9375 103.1875 C74.9697281 95.36744728 63.72007784 92.24623794 52.28515625 90.109375 C34.94026651 86.86347083 19.03963707 82.03323163 8.0625 67.1875 C-3.26391568 49.22824536 -7.8934179 28.26297671 -3.64453125 7.32421875 C-2.87119567 4.53552378 -1.74925406 2.3058349 0 0 Z " fill="#85C346" transform="translate(414,127)"/>
<path d="M0 0 C7.05736932 4.97416995 11.62555666 11.37304593 13.59375 19.828125 C14.76112221 30.2983706 13.2065508 38.30266495 7.46875 47.078125 C0.70834196 53.54460225 -7.28487201 57.72830516 -16.71875 58.140625 C-25.59226927 57.88407767 -32.97381783 54.94239386 -39.40625 48.828125 C-45.32268376 42.4689649 -48.45401023 35.60338398 -48.78125 26.890625 C-48.41048378 17.31002596 -45.32406221 9.56591979 -38.40625 2.828125 C-26.71307607 -5.73487621 -12.85564234 -7.39545017 0 0 Z " fill="#E0A227" transform="translate(1842.40625,87.171875)"/>
<path d="M0 0 C21.84151629 -1.15972653 45.46815765 4.85653455 62.3125 19.3125 C68.01225774 24.67644399 73.66723477 30.96372625 74.203125 39.07421875 C74.29475526 46.13738467 74.07219004 51.59960409 71 58 C70.34 58 69.68 58 69 58 C68.5978125 56.89205078 68.5978125 56.89205078 68.1875 55.76171875 C63.16266874 42.75335625 55.17596816 30.9478666 42.4375 24.5 C41.303125 24.005 40.16875 23.51 39 23 C39.78503906 23.54527344 40.57007813 24.09054688 41.37890625 24.65234375 C53.66543284 33.47150701 62.74272828 44.81932078 66 60 C65.6875 63.0625 65.6875 63.0625 65 65 C56.75464021 67.30461808 44.78368113 67.72140209 36.8125 64.4375 C34.83984375 63.3125 34.83984375 63.3125 33 62 C32.32066406 61.525625 31.64132812 61.05125 30.94140625 60.5625 C20.51379815 52.36233938 16.46048262 40.56605943 12.05859375 28.53515625 C10.06521423 23.10293365 7.88365046 17.76416361 5.625 12.4375 C5.12432007 11.25124023 5.12432007 11.25124023 4.61352539 10.04101562 C3.16660936 6.6389585 1.67635623 3.29652941 0 0 Z " fill="#85C246" transform="translate(1443,97)"/>
<path d="M0 0 C9 0 9 0 11.10058594 1.38256836 C11.55723633 2.02846924 12.01388672 2.67437012 12.484375 3.33984375 C13.0208667 4.0654248 13.5573584 4.79100586 14.11010742 5.53857422 C14.92185425 6.72604248 14.92185425 6.72604248 15.75 7.9375 C16.94906355 9.5847484 18.14828639 11.23188086 19.34765625 12.87890625 C19.94852051 13.72598145 20.54938477 14.57305664 21.16845703 15.44580078 C24.07494481 19.49907659 27.13718439 23.42959604 30.1875 27.375 C31.24478833 28.75681974 32.30086658 30.1395666 33.35546875 31.5234375 C33.79528076 32.10013184 34.23509277 32.67682617 34.68823242 33.27099609 C36.13284776 35.17510289 37.56594525 37.087927 39 39 C39.33 26.13 39.66 13.26 40 0 C43.63 0 47.26 0 51 0 C51 19.8 51 39.6 51 60 C42 60 42 60 39.35546875 57.9375 C38.64003906 56.968125 37.92460938 55.99875 37.1875 55 C36.78281494 54.46890625 36.37812988 53.9378125 35.96118164 53.390625 C35.08319513 52.23083824 34.21830607 51.06104606 33.36523438 49.8828125 C31.94261325 47.92085718 30.48415199 45.99029604 29.015625 44.0625 C27.04614849 41.46917515 25.09032823 38.86693937 23.15234375 36.25 C19.12287644 30.81745919 15.05828515 25.41104686 11 20 C10.67 33.2 10.34 46.4 10 60 C6.7 60 3.4 60 0 60 C0 40.2 0 20.4 0 0 Z " fill="#292928" transform="translate(518,402)"/>
<path d="M0 0 C8.476875 -0.0928125 8.476875 -0.0928125 17.125 -0.1875 C18.89762207 -0.21481201 20.67024414 -0.24212402 22.49658203 -0.27026367 C23.91698528 -0.27903354 25.33739612 -0.2866763 26.7578125 -0.29296875 C27.48282959 -0.30831665 28.20784668 -0.32366455 28.95483398 -0.33947754 C34.5628424 -0.34234169 38.63480518 0.8672816 42.828125 4.6484375 C47.18805962 9.94264383 49.46493959 13.81591118 49.25 20.94921875 C48.50263239 27.07996869 45.51688248 31.03395685 41 35 C39.67273933 36.00804608 38.34047099 37.00958831 37 38 C37.39380859 38.59538574 37.78761719 39.19077148 38.19335938 39.80419922 C39.96697095 42.49137818 41.73355765 45.18310345 43.5 47.875 C44.43005859 49.28072266 44.43005859 49.28072266 45.37890625 50.71484375 C46.25869141 52.05869141 46.25869141 52.05869141 47.15625 53.4296875 C47.70087891 54.25710449 48.24550781 55.08452148 48.80664062 55.93701172 C50 58 50 58 50 60 C46.14127767 60.70223072 42.83751498 60.90234831 39 60 C35.55593717 56.80737129 33.37336611 53.0228297 31 49 C29.84091235 47.30728527 28.67500307 45.61920602 27.5 43.9375 C25 40.2606383 25 40.2606383 25 38 C20.38 38 15.76 38 11 38 C11 45.26 11 52.52 11 60 C7.37 60 3.74 60 0 60 C0 40.2 0 20.4 0 0 Z M11 9 C11 15.6 11 22.2 11 29 C14.37635286 29.13541522 17.74723976 29.23431111 21.125 29.3125 C22.07632813 29.35439453 23.02765625 29.39628906 24.0078125 29.43945312 C30.27618821 29.5564161 30.27618821 29.5564161 35.6171875 26.60546875 C38.15491042 23.83061435 38.87654557 22.90533251 39.375 19.25 C38.8528401 14.7246142 37.15770622 13.2328897 34 10 C31.54724859 8.7736243 29.9494219 8.88584686 27.2109375 8.90234375 C25.79941406 8.90717773 25.79941406 8.90717773 24.359375 8.91210938 C23.37453125 8.92048828 22.3896875 8.92886719 21.375 8.9375 C19.88613281 8.94426758 19.88613281 8.94426758 18.3671875 8.95117188 C15.91143278 8.96297839 13.45570894 8.98091418 11 9 Z " fill="#292827" transform="translate(839,402)"/>
<path d="M0 0 C5.07375 -0.0825 10.1475 -0.165 15.375 -0.25 C16.95458496 -0.28641602 18.53416992 -0.32283203 20.16162109 -0.36035156 C29.85546563 -0.43634326 37.05916212 0.83040589 45.3125 6.125 C52.7409182 14.07167994 54.36187169 22.79152538 54.28515625 33.3125 C53.72597784 40.54351949 51.37598107 47.92268455 46 53 C38.99382133 58.22780509 32.34283357 60.26840526 23.53515625 60.1953125 C22.29386963 60.19031738 21.05258301 60.18532227 19.77368164 60.18017578 C18.2189917 60.16196777 16.66430176 60.14375977 15.0625 60.125 C10.091875 60.08375 5.12125 60.0425 0 60 C0 40.2 0 20.4 0 0 Z M11 9 C11 22.86 11 36.72 11 51 C25.37602655 51.97048233 25.37602655 51.97048233 37.80078125 46.453125 C43.05685392 40.78308957 44.44804509 35.14016824 44.2421875 27.5234375 C43.58818686 20.7091728 41.24219975 16.5913928 36.01171875 12.2265625 C27.78203793 7.20885419 21.1746926 9 11 9 Z " fill="#292827" transform="translate(1351,402)"/>
<path d="M0 0 C7.62858608 4.54210867 12.08842866 9.98078179 15.2109375 18.31640625 C17.50813096 27.72465715 16.78193316 37.38364097 11.734375 45.76953125 C6.47503619 53.02213545 0.13363071 57.707396 -8.7890625 59.31640625 C-19.66420031 60.10629953 -27.54157757 59.33722948 -36.0390625 52.25390625 C-43.17492686 45.37329054 -46.50594029 38.33366248 -46.9140625 28.3984375 C-46.52269273 18.74872649 -43.77042566 11.10307004 -36.7890625 4.31640625 C-26.4240821 -3.84751653 -12.05090633 -5.74519953 0 0 Z M-28.8359375 11.16015625 C-34.77012388 17.73189985 -36.26688983 22.16494721 -36.09765625 31.0546875 C-35.50219708 37.34846475 -33.06282291 41.37468293 -28.5390625 45.69140625 C-23.47712922 49.64402223 -18.49643865 50.60577315 -12.1640625 50.19140625 C-5.51793471 49.18821715 -1.17408322 45.31695675 2.94921875 40.23046875 C6.40008288 34.99541172 6.59038942 29.48411907 5.68359375 23.41796875 C4.17760577 16.72192301 0.23817757 12.73819831 -4.9765625 8.56640625 C-12.85628496 5.06430738 -22.23224565 5.2117926 -28.8359375 11.16015625 Z " fill="#292827" transform="translate(1303.7890625,403.68359375)"/>
<path d="M0 0 C7.04195849 5.24223062 13.31651167 11.0622074 15 20 C15.76799653 31.51994798 15.16778778 40.09692024 7.6875 49.3125 C2.358166 55.04039531 -4.19434929 58.46946603 -12.04296875 59.3359375 C-22.68470168 59.46813294 -31.40790074 57.49778554 -39.27734375 50 C-46.03612182 42.15307399 -47.37833469 34.72146441 -47.2734375 24.609375 C-46.60493471 15.78513823 -42.61104817 8.81049156 -36 3 C-25.77587444 -3.94273391 -11.20242995 -6.4216461 0 0 Z M-31.9375 12.75 C-35.81894778 18.86622075 -38.0506986 24.68770566 -37 32 C-35.2987164 38.64486854 -32.4883675 43.2435053 -26.8125 47.25 C-21.091738 50.23845776 -15.48709842 50.69105836 -9.3125 48.875 C-3.47769712 46.59800375 0.49524961 43.49402516 3.375 37.875 C5.72589614 31.93849336 6.13394869 25.89165822 4.33984375 19.734375 C2.09887112 14.65095657 -1.33260828 10.98085522 -6 8 C-14.83465631 4.59013265 -25.22500176 5.30522922 -31.9375 12.75 Z " fill="#2A2928" transform="translate(1213,404)"/>
<path d="M0 0 C3.63335301 2.21104401 6.79331946 4.80273061 9.1953125 8.3359375 C9.6903125 10.8109375 9.6903125 10.8109375 10.1953125 13.3359375 C6.8953125 13.9959375 3.5953125 14.6559375 0.1953125 15.3359375 C-0.3409375 14.5728125 -0.8771875 13.8096875 -1.4296875 13.0234375 C-4.54424649 9.49906812 -7.27705186 7.66193998 -12.015625 7.05078125 C-15.62989411 6.91269456 -18.37854362 7.18501154 -21.8046875 8.3984375 C-24.62239304 11.12808974 -24.58855394 13.51757796 -24.8046875 17.3359375 C-23.5169726 17.76576139 -22.2291992 18.19541002 -20.94140625 18.625 C-20.11817871 18.89989258 -19.29495117 19.17478516 -18.44677734 19.45800781 C-16.72718456 20.02940456 -15.00621567 20.59668193 -13.28369141 21.15917969 C-10.72370454 21.99681334 -8.17036356 22.85279203 -5.6171875 23.7109375 C-4.75416016 23.989375 -3.89113281 24.2678125 -3.00195312 24.5546875 C2.37847192 26.3824677 6.16023842 28.29449895 10.1953125 32.3359375 C12.40693922 37.43229473 12.77825362 42.04558164 11.1953125 47.3359375 C8.40970696 53.24334236 4.21400449 56.11033768 -1.8046875 58.3359375 C-8.9363905 60.54617603 -17.60158417 60.23435248 -24.56640625 57.5859375 C-30.19968237 54.43995432 -36.47661164 49.53141808 -38.8046875 43.3359375 C-38.8046875 42.3459375 -38.8046875 41.3559375 -38.8046875 40.3359375 C-35.18495348 39.01967058 -32.70901619 38.3359375 -28.8046875 38.3359375 C-27.34765625 39.98046875 -27.34765625 39.98046875 -25.9921875 42.1484375 C-23.09201105 46.25520364 -20.76774972 47.96681689 -15.8046875 49.3359375 C-10.06730439 50.12964663 -5.88706861 49.03271115 -0.8046875 46.3359375 C0.60973124 43.50710003 0.51431582 41.46217005 0.1953125 38.3359375 C-2.64897854 35.67018957 -5.54316157 34.59063251 -9.234375 33.46875 C-10.27722656 33.14003906 -11.32007813 32.81132812 -12.39453125 32.47265625 C-14.57530772 31.8010497 -16.75759771 31.13433716 -18.94140625 30.47265625 C-25.75137526 28.31462661 -31.06652344 26.4669249 -35.15625 20.296875 C-36.36653015 16.63687118 -36.33944584 13.13206153 -35.8046875 9.3359375 C-28.89087759 -4.23561529 -12.97659971 -6.03861571 0 0 Z " fill="#292827" transform="translate(1470.8046875,403.6640625)"/>
<path d="M0 0 C4.29 0 8.58 0 13 0 C17.62160795 9.78856564 21.60607954 19.80869356 25.58544922 29.87182617 C26.75507271 32.8253094 27.93401116 35.77496679 29.11328125 38.72460938 C29.86254997 40.61435712 30.61126757 42.50432348 31.359375 44.39453125 C31.71038269 45.26962845 32.06139038 46.14472565 32.42303467 47.04634094 C34.1195081 51.36387268 35.47236566 55.3529409 36 60 C32.7 60 29.4 60 26 60 C25.15973604 58.23244474 24.32801278 56.46082737 23.5 54.6875 C23.0359375 53.70136719 22.571875 52.71523438 22.09375 51.69921875 C21 49 21 49 21 46 C11.76 46.33 2.52 46.66 -7 47 C-8.65 51.29 -10.3 55.58 -12 60 C-15.63 60 -19.26 60 -23 60 C-20.66435145 51.62992841 -17.58345595 43.66810586 -14.3125 35.625 C-13.77722868 34.29949424 -13.24240195 32.97380887 -12.70800781 31.64794922 C-11.64343462 29.00797697 -10.57677192 26.36886569 -9.50830078 23.73046875 C-7.40570223 18.53524468 -5.32774015 13.33020459 -3.25 8.125 C-2.60950789 6.52338435 -1.96889861 4.92181555 -1.328125 3.3203125 C-0.88984375 2.22460938 -0.4515625 1.12890625 0 0 Z M6 12 C4.49451631 15.78951244 2.99654686 19.58195031 1.5 23.375 C0.85611328 24.99535156 0.85611328 24.99535156 0.19921875 26.6484375 C-0.20683594 27.6796875 -0.61289062 28.7109375 -1.03125 29.7734375 C-1.40830078 30.72653809 -1.78535156 31.67963867 -2.17382812 32.66162109 C-3.11104302 34.9009545 -3.11104302 34.9009545 -3 37 C3.6 37 10.2 37 17 37 C16.0925 34.36 15.185 31.72 14.25 29 C13.97317383 28.1853125 13.69634766 27.370625 13.41113281 26.53125 C11.64201835 21.4557216 9.49027551 16.76400532 7 12 C6.67 12 6.34 12 6 12 Z " fill="#292828" transform="translate(938,402)"/>
<path d="M0 0 C1.79244141 0.01740234 1.79244141 0.01740234 3.62109375 0.03515625 C5.41740234 0.04869141 5.41740234 0.04869141 7.25 0.0625 C8.17683594 0.07410156 9.10367188 0.08570313 10.05859375 0.09765625 C13.06144415 7.62377834 16.0606192 15.15134986 19.0550766 22.68081474 C20.44554787 26.1767709 21.83729317 29.67220863 23.23193359 33.16650391 C24.57708269 36.53693293 25.91890652 39.90866787 27.25840759 43.28134537 C27.77075802 44.56965613 28.28431716 45.85748687 28.79908752 47.14483261 C29.51831809 48.94408624 30.23290641 50.74519347 30.94726562 52.54638672 C31.35585815 53.57230927 31.76445068 54.59823181 32.1854248 55.65524292 C33.05859375 58.09765625 33.05859375 58.09765625 33.05859375 60.09765625 C29.42859375 60.09765625 25.79859375 60.09765625 22.05859375 60.09765625 C20.40859375 55.80765625 18.75859375 51.51765625 17.05859375 47.09765625 C3.19859375 46.60265625 3.19859375 46.60265625 -10.94140625 46.09765625 C-11.43640625 48.57265625 -11.43640625 48.57265625 -11.94140625 51.09765625 C-13.15410294 54.16105471 -14.5568079 57.10513723 -15.94140625 60.09765625 C-19.24140625 60.09765625 -22.54140625 60.09765625 -25.94140625 60.09765625 C-25.36441612 55.99622122 -24.4449029 52.41277741 -22.91601562 48.56713867 C-22.49888306 47.5097197 -22.08175049 46.45230072 -21.65197754 45.36283875 C-21.20092651 44.23763321 -20.74987549 43.11242767 -20.28515625 41.953125 C-19.59166077 40.20483147 -19.59166077 40.20483147 -18.88415527 38.42121887 C-17.90846834 35.96494903 -16.93060981 33.50969417 -15.94873047 31.0559082 C-14.68852225 27.90625649 -13.43591691 24.75365075 -12.18590546 21.5999403 C-10.99284798 18.59146337 -9.79523133 15.58480592 -8.59765625 12.578125 C-8.14660522 11.44279831 -7.6955542 10.30747162 -7.23083496 9.13774109 C-6.81370239 8.09608292 -6.39656982 7.05442474 -5.96679688 5.98120117 C-5.59897095 5.05997971 -5.23114502 4.13875824 -4.85217285 3.18962097 C-3.51432315 0.1166774 -3.51432315 0.1166774 0 0 Z M3.05859375 11.09765625 C1.38915999 15.24238075 -0.27649014 19.38861519 -1.94140625 23.53515625 C-2.41835938 24.71916016 -2.8953125 25.90316406 -3.38671875 27.12304688 C-3.83789062 28.24775391 -4.2890625 29.37246094 -4.75390625 30.53125 C-5.17285156 31.57337646 -5.59179688 32.61550293 -6.0234375 33.68920898 C-7.00076506 35.82381802 -7.00076506 35.82381802 -6.94140625 37.09765625 C-0.34140625 37.09765625 6.25859375 37.09765625 13.05859375 37.09765625 C12.31866026 33.39798881 11.54642877 30.47094367 10.2109375 27.015625 C9.85322266 26.08427734 9.49550781 25.15292969 9.12695312 24.19335938 C8.56717773 22.75379883 8.56717773 22.75379883 7.99609375 21.28515625 C7.61904297 20.30611328 7.24199219 19.32707031 6.85351562 18.31835938 C5.9254378 15.91005615 4.99369259 13.50324011 4.05859375 11.09765625 C3.72859375 11.09765625 3.39859375 11.09765625 3.05859375 11.09765625 Z " fill="#2A2928" transform="translate(623.94140625,401.90234375)"/>
<path d="M0 0 C3.3 0 6.6 0 10 0 C10.01458252 1.14476807 10.02916504 2.28953613 10.04418945 3.46899414 C10.10240761 7.73899697 10.17963828 12.00848538 10.26245117 16.27807617 C10.29559026 18.12174088 10.32365613 19.96550436 10.34643555 21.80932617 C10.38018512 24.46836208 10.43250966 27.12650187 10.48828125 29.78515625 C10.49467117 30.60210464 10.5010611 31.41905304 10.50764465 32.26075745 C10.66863964 38.60713795 11.74967769 43.55679293 16.1875 48.375 C21.12201837 51.22605506 25.30159583 51.28306736 30.75 50.375 C34.55197527 48.766472 35.88616126 47.52306457 38 44 C39.85296203 38.63261178 40.33031945 33.82814723 40.4140625 28.22265625 C40.43342865 27.41130722 40.4527948 26.59995819 40.4727478 25.76402283 C40.53206966 23.19695228 40.57873736 20.62983571 40.625 18.0625 C40.66322352 16.31183044 40.70227774 14.56117881 40.7421875 12.81054688 C40.83773156 8.54051184 40.92193537 4.2703889 41 0 C44.3 0 47.6 0 51 0 C51.07471359 5.51347971 51.12886615 11.02665822 51.16479492 16.54052734 C51.17978865 18.41232443 51.2001905 20.28408694 51.22631836 22.15576172 C51.54495938 45.58524868 51.54495938 45.58524868 45.75 53.375 C38.69461761 60.10968319 31.9078611 61.38020888 22.39453125 61.2734375 C15.70701455 60.73474225 10.19200913 58.70856738 5.5625 53.75 C0.23319578 47.32301819 -0.43369692 40.00575471 -0.29296875 32.03125 C-0.28872391 31.11033569 -0.28447906 30.18942139 -0.28010559 29.24060059 C-0.26344065 26.32675755 -0.22581188 23.41363061 -0.1875 20.5 C-0.17243739 18.51303089 -0.15875175 16.52605083 -0.14648438 14.5390625 C-0.11357716 9.69243643 -0.06188031 4.84633922 0 0 Z " fill="#2A2928" transform="translate(755,402)"/>
<path d="M0 0 C13.86 0 27.72 0 42 0 C42 2.97 42 5.94 42 9 C31.44 9 20.88 9 10 9 C10 14.61 10 20.22 10 26 C19.24 26 28.48 26 38 26 C38 28.97 38 31.94 38 35 C28.76 35 19.52 35 10 35 C10 43.25 10 51.5 10 60 C6.7 60 3.4 60 0 60 C0 40.2 0 20.4 0 0 Z " fill="#2A2928" transform="translate(1097,402)"/>
<path d="M0 0 C17.16 0 34.32 0 52 0 C52 2.97 52 5.94 52 9 C45.07 9 38.14 9 31 9 C31 25.83 31 42.66 31 60 C27.7 60 24.4 60 21 60 C21 43.17 21 26.34 21 9 C14.07 9 7.14 9 0 9 C0 6.03 0 3.06 0 0 Z " fill="#2A2928" transform="translate(674,402)"/>
<path d="M0 0 C3.3 0 6.6 0 10 0 C10 16.83 10 33.66 10 51 C20.23 51 30.46 51 41 51 C41 53.97 41 56.94 41 60 C27.47 60 13.94 60 0 60 C0 40.2 0 20.4 0 0 Z " fill="#2A2928" transform="translate(1004,402)"/>
</svg>
