<?xml version="1.0" encoding="UTF-8"?>
<svg version="1.1" xmlns="http://www.w3.org/2000/svg" width="410" height="490">
<path d="M0 0 C0.77450156 -0.00297112 1.54900313 -0.00594224 2.34697443 -0.0090034 C4.93287054 -0.01764972 7.51872012 -0.01919522 10.10462952 -0.02069092 C11.96292723 -0.02532214 13.82122399 -0.03034721 15.67951965 -0.03573608 C20.72339873 -0.04883672 25.76726451 -0.05530101 30.81115794 -0.05974674 C33.96752713 -0.06268252 37.12389272 -0.06678838 40.28026009 -0.07125092 C50.17036641 -0.08492252 60.06046447 -0.09458963 69.95057958 -0.09845281 C81.33919382 -0.10292649 92.72768761 -0.12044374 104.11626524 -0.1494534 C112.93608305 -0.17113375 121.75586715 -0.18116054 130.57571131 -0.18249393 C135.83496491 -0.18353783 141.09410524 -0.18935633 146.35333061 -0.20731354 C151.30854026 -0.22390334 156.26355284 -0.22589726 161.21878052 -0.21717453 C163.02661737 -0.21640984 164.83446529 -0.22067091 166.64227486 -0.23063278 C201.6458616 -0.41203452 231.52960646 13.80630181 257.12831116 37.14044189 C258.07448303 38.00282471 259.02065491 38.86520752 259.99549866 39.75372314 C278.5877271 57.52957895 288.75758414 79.9849313 297.56581116 103.76544189 C298.32477681 105.78535618 299.08522774 107.80471294 299.84706116 109.82354736 C301.03903362 112.98233465 302.23024172 116.14138023 303.417099 119.30209351 C307.64900205 130.56579666 311.99799766 141.78346034 316.358078 152.99804688 C317.61024654 156.21897465 318.86061761 159.44059473 320.11048889 162.66241455 C322.27576694 168.24184995 322.27576694 168.24184995 324.44276428 173.82061768 C324.73739563 174.58134583 325.03202698 175.34207397 325.33558655 176.12585449 C325.98545814 177.77740297 326.66852569 179.41585331 327.36073303 181.05010986 C328.12831116 183.14044189 328.12831116 183.14044189 328.12831116 186.14044189 C316.01821836 186.21031269 303.90817444 186.26344001 291.79792023 186.29587841 C286.17311422 186.31145638 280.5484473 186.33254897 274.92372131 186.36676025 C269.48367976 186.39963675 264.04377102 186.41735389 258.6036377 186.42507362 C256.54027215 186.43056681 254.4769129 186.44129171 252.41360474 186.45763206 C236.85539462 186.57581356 222.23985823 185.66917809 207.56581116 179.95294189 C206.77408508 179.65105957 205.98235901 179.34917725 205.16664124 179.03814697 C170.54273965 165.46212525 142.81028286 138.7197333 127.12831116 105.14044189 C123.34529943 96.31719524 120.01528651 87.30842895 116.62831116 78.32794189 C115.75433903 76.03132652 114.87934127 73.73510118 114.00331116 71.43927002 C112.63472982 67.8513047 111.26729359 64.2629325 109.90419006 60.67288208 C105.28732792 48.51463979 100.59992135 36.38376771 95.90956116 24.25372314 C95.52238419 23.25240042 95.13520721 22.25107769 94.73629761 21.21941185 C92.5346066 15.52604581 90.33188452 9.83307963 88.12831116 4.14044189 C88.1268446 4.98029098 88.12537804 5.82014006 88.12386703 6.68543911 C88.08670169 27.18731578 88.02755884 47.68902841 87.94440842 68.19077206 C87.90471793 78.10555708 87.87227494 88.02026389 87.85731506 97.93511963 C87.8442465 106.58399214 87.81715021 115.2326918 87.77369809 123.88146693 C87.75119957 128.4545312 87.73539344 133.02738322 87.73642731 137.60050774 C87.73718086 141.91885845 87.71895583 146.23674207 87.68714333 150.55497169 C87.67873472 152.12650287 87.6768316 153.69808701 87.68250847 155.26963043 C87.7255392 169.03204165 86.11671796 183.24808592 79.37831116 195.51544189 C79.03324524 196.16988281 78.68817932 196.82432373 78.33265686 197.49859619 C65.94920945 220.40727109 47.22010096 234.16524496 22.57752991 241.56231689 C16.24283533 243.0575877 10.07949455 243.28090234 3.6129303 243.25396729 C2.22151321 243.25418633 2.22151321 243.25418633 0.80198669 243.25440979 C-2.24421073 243.25371675 -5.29034594 243.24595294 -8.33653259 243.23809814 C-10.45645108 243.2362318 -12.57636999 243.23480892 -14.69628906 243.23381042 C-20.26111554 243.23000227 -25.82591569 243.22018657 -31.39073181 243.20910645 C-37.07513574 243.19885568 -42.75954395 243.19430496 -48.44395447 243.18927002 C-59.58654412 243.17856272 -70.72911429 243.16150681 -81.87168884 243.14044189 C-81.96541079 221.26883897 -82.03580396 199.39726949 -82.07893753 177.52550602 C-82.09950355 167.36851829 -82.12750927 157.21165583 -82.17344666 147.05474854 C-82.21349788 138.19501433 -82.23916489 129.33537091 -82.24804282 120.47554868 C-82.25322681 115.79063793 -82.26528461 111.10598675 -82.29460907 106.42115974 C-82.32206824 101.9978506 -82.33007331 97.57490416 -82.32411957 93.15151787 C-82.32520634 91.54124342 -82.33297659 89.93095489 -82.34851074 88.320755 C-82.47579823 74.42723724 -80.92986658 60.15981675 -74.12168884 47.76544189 C-73.77662292 47.11100098 -73.43155701 46.45656006 -73.07603455 45.7822876 C-61.78366439 24.8920437 -44.54935975 10.27843098 -21.89122009 3.21075439 C-14.55783851 1.13246812 -7.63828069 -0.00925057 0 0 Z M-40.87168884 44.14044189 C-41.43629822 44.68184814 -42.00090759 45.22325439 -42.58262634 45.78106689 C-54.33401635 58.0920469 -57.3503769 75.11582605 -57.21226501 91.44610596 C-57.21141653 92.83702069 -57.2118982 94.22793675 -57.21359253 95.61885071 C-57.21444527 99.35574523 -57.19693816 103.09234461 -57.17587066 106.82917118 C-57.15698194 110.74889144 -57.15534389 114.66862016 -57.15179443 118.58837891 C-57.14250949 125.99352254 -57.11794439 133.39853162 -57.08774596 140.80361629 C-57.05409066 149.2414417 -57.0376881 157.67927389 -57.02265966 166.11714983 C-56.9913912 183.45832471 -56.93870065 200.79936903 -56.87168884 218.14044189 C-48.3950908 218.2338491 -39.9187141 218.30456021 -31.44172573 218.34769058 C-27.50388621 218.36840946 -23.56640329 218.39643244 -19.62876892 218.44219971 C-15.81615855 218.48622755 -12.00388727 218.50969639 -8.19104195 218.51995087 C-6.74922929 218.52724174 -5.30743145 218.54147282 -3.86576653 218.56336212 C14.61541779 218.83235441 30.30012559 214.31646568 43.91737366 201.34356689 C44.64698303 200.61653564 45.37659241 199.88950439 46.12831116 199.14044189 C46.97522522 198.32833252 46.97522522 198.32833252 47.83924866 197.49981689 C59.59063866 185.18883689 62.60699922 168.16505774 62.46888733 151.83477783 C62.46803884 150.4438631 62.46852052 149.05294704 62.47021484 147.66203308 C62.47106758 143.92513856 62.45356048 140.18853918 62.43249297 136.45171261 C62.41360425 132.53199235 62.4119662 128.61226363 62.40841675 124.69250488 C62.39913181 117.28736125 62.37456671 109.88235217 62.34436828 102.4772675 C62.31071298 94.03944209 62.29431042 85.6016099 62.27928197 77.16373396 C62.24801352 59.82255908 62.19532297 42.48151476 62.12831116 25.14044189 C53.65171312 25.04703469 45.17533641 24.97632357 36.69834805 24.93319321 C32.76050853 24.91247433 28.82302561 24.88445135 24.88539124 24.83868408 C21.07278086 24.79465624 17.26050958 24.77118739 13.44766426 24.76093292 C12.00585161 24.75364205 10.56405376 24.73941097 9.12238884 24.71752167 C-10.80154567 24.42753025 -26.60396239 29.92313144 -40.87168884 44.14044189 Z M129.12831116 28.14044189 C129.76624678 33.47271112 131.47470639 38.0435055 133.44471741 42.99200439 C133.77946579 43.84611908 134.11421417 44.70023376 134.45910645 45.58023071 C135.53088666 48.31081631 136.61076188 51.03811799 137.69081116 53.76544189 C138.38990107 55.54388254 139.08847318 57.32252682 139.78651428 59.10137939 C141.53506895 63.55157376 143.29380875 67.99764607 145.057724 72.44177246 C145.78179291 74.26696029 146.50468158 76.0926167 147.22648621 77.91870117 C148.29794441 80.62906523 149.37283401 83.33804458 150.44862366 86.04669189 C150.76976639 86.86030182 151.09090912 87.67391174 151.42178345 88.51217651 C162.67452638 116.75494153 184.45692079 138.38582389 211.92274475 151.20196533 C223.83145693 156.26916586 235.77692173 158.30062692 248.65174866 158.23809814 C249.75306122 158.2366832 250.85437378 158.23526825 251.98905945 158.23381042 C255.49383807 158.22822942 258.99855196 158.21568036 262.50331116 158.20294189 C264.88482065 158.19792444 267.26633115 158.19336196 269.64784241 158.18927002 C275.47468728 158.1782662 281.30149459 158.16154696 287.12831116 158.14044189 C285.11338206 151.94452194 282.93469418 145.8305254 280.61659241 139.74200439 C280.28467392 138.86756683 279.95275543 137.99312927 279.61077881 137.0921936 C278.90998858 135.24804549 278.20821669 133.40427015 277.50550842 131.56085205 C276.457349 128.80886274 275.4147297 126.0548194 274.37245178 123.30059814 C270.97830559 114.36490596 267.49770074 105.47565022 263.79237366 96.66387939 C263.46759537 95.89145905 263.14281708 95.1190387 262.80819702 94.32321167 C251.24033715 67.10185359 228.43200188 45.42742599 201.12831116 34.14044189 C189.57341627 29.7972055 179.00808395 27.98157839 166.72596741 28.04278564 C165.10941505 28.04490807 165.10941505 28.04490807 163.46020508 28.04707336 C160.03704487 28.05264579 156.61395141 28.06519322 153.19081116 28.07794189 C150.86203606 28.08296046 148.53325994 28.08752274 146.20448303 28.09161377 C140.51240318 28.10260619 134.82036194 28.11931676 129.12831116 28.14044189 Z " fill="#004924" transform="translate(81.87168884277344,246.85955810546875)"/>
<path d="M0 0 C12.14463443 -0.0698016 24.28922038 -0.12296358 36.43401527 -0.15543652 C42.07457234 -0.17102931 47.7149912 -0.19214982 53.35546875 -0.22631836 C58.80846879 -0.25914093 64.26133667 -0.27690092 69.71442795 -0.28463173 C71.78502861 -0.29013441 73.85562281 -0.30087864 75.92616653 -0.31719017 C101.56171703 -0.51093885 124.32991129 4.85911499 143.25 23.25390625 C144.61125 24.61322266 144.61125 24.61322266 146 26 C146.7425 26.73089844 147.485 27.46179688 148.25 28.21484375 C164.28047923 45.02806122 169.28933876 66.84480798 169.31884766 89.37353516 C169.32816063 91.01046231 169.33833132 92.64738478 169.34928894 94.28430176 C169.3764487 98.7009142 169.39169648 103.117495 169.40471697 107.53416872 C169.42040926 112.15997198 169.44717987 116.78571119 169.4727478 121.41146851 C169.51942804 130.15885519 169.55622403 138.90625407 169.58942068 147.65370119 C169.62771829 157.61750753 169.67710832 167.58124939 169.72740483 177.54500127 C169.83056463 198.02995315 169.91987664 218.51494591 170 239 C172.69913826 232.00858941 175.39812008 225.01711845 178.09692448 218.02557898 C179.35132422 214.77593642 180.60576963 211.52631151 181.8603363 208.2767334 C187.80502985 192.87867466 193.74404247 177.47845098 199.66955566 162.07299805 C200.02460426 161.15000506 200.37965286 160.22701208 200.74546051 159.27604961 C201.47752412 157.3714857 202.20875846 155.46660289 202.93929291 153.56145191 C203.30189461 152.61625533 203.66449631 151.67105875 204.03808594 150.69721985 C204.35964661 149.85815251 204.68120728 149.01908518 205.01251221 148.15459156 C210.99208039 132.7337477 218.21229703 118.61449042 229 106 C229.44102051 105.48066895 229.88204102 104.96133789 230.33642578 104.42626953 C236.58981557 97.14078874 243.3476837 90.8240805 251 85 C251.84949219 84.33484375 252.69898438 83.6696875 253.57421875 82.984375 C273.91522056 67.53859186 298.72768992 56.77906163 324.51538086 56.88647461 C325.44299225 56.88632858 326.37060364 56.88618256 327.32632446 56.8860321 C330.37252189 56.88672515 333.41865709 56.89448895 336.46484375 56.90234375 C338.58476223 56.90421009 340.70468115 56.90563297 342.82460022 56.90663147 C348.3894267 56.91043962 353.95422685 56.92025533 359.51904297 56.93133545 C365.2034469 56.94158621 370.88785511 56.94613693 376.57226562 56.95117188 C387.71485528 56.96187917 398.85742545 56.97893509 410 57 C409.16323236 61.52733798 407.72356848 65.66833637 406.0703125 69.953125 C405.76813309 70.74548553 405.46595367 71.53784607 405.15461731 72.35421753 C404.14886153 74.98774074 403.13714445 77.61892615 402.125 80.25 C401.41461001 82.10393306 400.70440868 83.95793843 399.99438477 85.81201172 C398.07518733 90.81866219 396.14955759 95.82281577 394.22210693 100.82629395 C392.97823603 104.05651915 391.7362582 107.28746725 390.49462891 110.51855469 C388.39105944 115.99093608 386.28261219 121.46141623 384.17059326 126.93054199 C383.35823536 129.03504073 382.54689007 131.13993067 381.7366333 133.24523926 C371.85938135 158.89296674 362.16641546 181.69395984 343 202 C342.06607422 203.01320312 342.06607422 203.01320312 341.11328125 204.046875 C320.28195556 225.88264616 288.81088621 242.45762613 258.36122501 243.34684253 C254.23572944 243.40744463 250.11189527 243.40353687 245.98608398 243.38818359 C244.12483413 243.39225885 242.26358669 243.39760603 240.40234375 243.40411377 C235.39205976 243.41767887 230.38196307 243.41253406 225.37167621 243.40297651 C220.10252082 243.39532457 214.83338033 243.40244067 209.56422424 243.40713501 C200.72060295 243.41257608 191.87705708 243.4054439 183.03344727 243.39111328 C172.83992325 243.37478493 162.64657928 243.38008334 152.45305961 243.3965925 C143.66618362 243.41024847 134.87936152 243.41210714 126.09247833 243.40427649 C120.85967662 243.39962316 115.62695927 243.39891029 110.39416313 243.40888596 C105.47328473 243.41761365 100.55263634 243.41142877 95.63178253 243.39420319 C93.83642774 243.39026934 92.04105326 243.39131848 90.24570656 243.39799118 C65.75896619 243.48054255 43.67597373 237.17437064 25.75 219.74609375 C24.8425 218.83988281 23.935 217.93367187 23 217 C21.88625 215.90365234 21.88625 215.90365234 20.75 214.78515625 C4.59924645 197.84579168 -0.33456128 175.92366789 -0.22705078 153.25927734 C-0.22648577 151.58294685 -0.22680498 149.90661586 -0.22793579 148.23028564 C-0.22850679 143.70618471 -0.21679358 139.18219104 -0.20278788 134.65811491 C-0.19023822 129.92024506 -0.18910669 125.18237243 -0.18673706 120.44448853 C-0.1805347 111.48455826 -0.16414079 102.52467712 -0.14403808 93.56476843 C-0.12164027 83.35917534 -0.1106759 73.15357982 -0.10064721 62.94796824 C-0.07977341 41.9652848 -0.04462172 20.9826455 0 0 Z M25 25 C24.92975848 43.17684472 24.8769379 61.35365397 24.84456348 79.53060532 C24.82912849 87.97145896 24.80810378 96.41222801 24.77368164 104.85302734 C24.74367572 112.2144493 24.72440055 119.57580996 24.71773452 126.93729138 C24.71384111 130.8311429 24.70476229 134.72481914 24.68280983 138.6186142 C24.66226726 142.29250873 24.65620158 145.96615777 24.66067696 149.64010429 C24.6594734 151.61307299 24.64342512 153.58601568 24.6267395 155.55891418 C24.68489366 172.52139437 29.84823013 187.58955624 41.83203125 199.89453125 C42.54746094 200.58933594 43.26289062 201.28414062 44 202 C44.54011719 202.56074219 45.08023438 203.12148437 45.63671875 203.69921875 C58.40691123 215.95474352 75.94181052 218.48309677 92.828125 218.29296875 C94.31312629 218.28735808 95.79813321 218.28309496 97.28314209 218.28010559 C101.14979995 218.26877232 105.01610775 218.23940791 108.88262939 218.20599365 C112.84488187 218.17504095 116.80719215 218.16154699 120.76953125 218.14648438 C128.51317865 218.11452421 136.25653986 218.06347177 144 218 C144.09375058 199.8749861 144.16412889 181.75003577 144.20724869 163.6248312 C144.22780876 155.20756831 144.25580272 146.79045673 144.30175781 138.37329102 C144.34182769 131.03051759 144.36748036 123.68785384 144.37635398 116.3449741 C144.38153492 112.46270314 144.39357221 108.5807457 144.42292023 104.69857597 C144.45040939 101.03200877 144.45837881 97.36587922 144.45243073 93.69921875 C144.45402726 91.73753727 144.47537242 89.7759016 144.49768066 87.81434631 C144.41284569 69.19213719 138.16472887 54.2114123 125 41 C124.45859375 40.43539062 123.9171875 39.87078125 123.359375 39.2890625 C110.54939785 27.06135704 93.08170678 24.51663844 76.171875 24.70703125 C74.68687371 24.71264192 73.20186679 24.71690504 71.71685791 24.71989441 C67.85020005 24.73122768 63.98389225 24.76059209 60.11737061 24.79400635 C56.15511813 24.82495905 52.19280785 24.83845301 48.23046875 24.85351562 C40.48682135 24.88547579 32.74346014 24.93652823 25 25 Z M252.4375 122.6875 C240.66556658 136.12331094 233.95676895 152.11444984 227.6015625 168.6328125 C227.11711719 169.88508654 226.63244238 171.13727182 226.14755249 172.38937378 C225.14487352 174.98148963 224.14529041 177.57477124 223.14794922 180.16894531 C221.86990673 183.49232898 220.5833366 186.81233878 219.29445839 190.13153267 C218.05871979 193.31762245 216.83050279 196.50659424 215.6015625 199.6953125 C215.13916168 200.88585236 214.67676086 202.07639221 214.2003479 203.30300903 C213.77925751 204.40200531 213.35816711 205.50100159 212.92431641 206.63330078 C212.36522079 208.08339035 212.36522079 208.08339035 211.79483032 209.56277466 C210.84497508 212.04810071 210.84497508 212.04810071 211 215 C217.70361869 215.0769221 224.407121 215.12896018 231.11108398 215.16479492 C233.38521579 215.17975526 235.65931938 215.20013086 237.93334961 215.22631836 C253.69349677 215.40308711 268.71035387 215.33158039 283.4375 208.9375 C284.13649414 208.63932373 284.83548828 208.34114746 285.55566406 208.03393555 C298.59449045 202.25662888 309.51438145 194.41040574 319.59521484 184.38574219 C320.86818058 183.1300325 322.1764448 181.91035725 323.48828125 180.6953125 C331.80259229 172.85487411 337.96120054 163.6891193 342.76953125 153.3828125 C343.28028702 152.29143478 343.28028702 152.29143478 343.80136108 151.17800903 C348.04913248 141.93056747 351.57118832 132.40482208 355.125 122.875 C356.14590718 120.15533438 357.16882728 117.43643544 358.19256592 114.71783447 C358.85422302 112.96057085 359.51476947 111.20288858 360.1741333 109.44476318 C362.66181242 102.83136245 365.2756521 96.27671545 367.96435547 89.74267578 C369.11775268 87.1767737 369.11775268 87.1767737 369 85 C362.13565336 84.923185 355.27141979 84.8710832 348.40673828 84.83520508 C346.07726906 84.82022923 343.7478275 84.7998414 341.41845703 84.77368164 C305.31641233 84.37874293 277.54741874 96.10052721 252.4375 122.6875 Z " fill="#004924" transform="translate(0,0)"/>
</svg>
